<svg id="Capa_1" enable-background="new 0 0 510.306 510.306" height="512" viewBox="0 0 510.306 510.306" width="512" xmlns="http://www.w3.org/2000/svg"><g><g><g><path d="m100.019 204.285c-1.568-1.567-4.109-1.567-5.674 0l-93.17 93.171c-1.567 1.566-1.567 4.108 0 5.674.784.784 1.811 1.175 2.837 1.175 1.027 0 2.054-.392 2.837-1.175l93.17-93.171c1.567-1.566 1.567-4.107 0-5.674z"/><path d="m19.703 210.155c1.027 0 2.055-.392 2.837-1.176l38.249-38.248c1.567-1.567 1.567-4.108 0-5.674-1.566-1.568-4.109-1.568-5.674 0l-38.249 38.249c-1.567 1.567-1.567 4.108 0 5.674.783.782 1.811 1.175 2.837 1.175z"/><path d="m305.975 410.241c-1.568-1.567-4.109-1.567-5.674 0l-93.17 93.171c-1.568 1.566-1.568 4.108 0 5.674.784.784 1.81 1.176 2.837 1.176s2.054-.392 2.837-1.176l93.17-93.171c1.567-1.566 1.567-4.107 0-5.674z"/><path d="m339.531 449.472-38.25 38.249c-1.567 1.566-1.567 4.107 0 5.674.784.784 1.811 1.176 2.837 1.176 1.027 0 2.054-.392 2.837-1.176l38.25-38.249c1.567-1.566 1.567-4.108 0-5.674-1.567-1.567-4.108-1.567-5.674 0z"/><path d="m103.922 385.303 6.854-9.691c.442-.625 1.132-1.026 1.931-.983l11.867.152c.045 0 .09.001.135.001 3.916 0 7.442-2.158 9.224-5.655 1.802-3.537 1.446-7.711-.928-10.893l-7.098-9.512c-.459-.614-.586-1.415-.34-2.14l3.812-11.24c0-.001 0-.001 0-.001 1.276-3.76.323-7.839-2.485-10.647-2.809-2.809-6.888-3.759-10.648-2.485l-11.238 3.812c-.729.245-1.528.121-2.142-.339l-9.512-7.099c-3.181-2.373-7.355-2.729-10.894-.927-3.538 1.803-5.704 5.388-5.653 9.358l.152 11.867c.01.767-.358 1.489-.984 1.932l-9.691 6.853c-3.242 2.292-4.869 6.154-4.248 10.075.621 3.922 3.363 7.089 7.153 8.267l11.332 3.523c.733.229 1.306.801 1.534 1.533l3.523 11.334c1.178 3.792 4.347 6.532 8.268 7.153.552.088 1.104.13 1.65.13 3.33.001 6.457-1.593 8.426-4.378zm-8.818-3.678c-.43-.067-1.472-.361-1.86-1.608l-3.522-11.333c-1.012-3.255-3.559-5.803-6.815-6.815l-11.334-3.524c-1.247-.387-1.54-1.429-1.609-1.858-.068-.43-.112-1.513.955-2.267l9.691-6.853c2.783-1.968 4.418-5.178 4.375-8.586l-.152-11.868c-.017-1.306.883-1.907 1.271-2.104.21-.106.603-.265 1.084-.265.41 0 .885.114 1.366.474l9.513 7.099c2.731 2.038 6.288 2.602 9.519 1.507l11.238-3.812c1.24-.417 2.088.252 2.395.559.309.308.979 1.157.56 2.396v-.001l-3.812 11.241c-1.094 3.227-.531 6.785 1.507 9.518l7.098 9.512c.782 1.047.407 2.062.209 2.45-.198.387-.822 1.315-2.105 1.271l-11.867-.152c-.044 0-.088-.001-.132-.001-3.359 0-6.513 1.63-8.454 4.376l-6.853 9.69c-.755 1.066-1.837 1.024-2.266.954z"/><path d="m161.29 438.788c-.458-.613-.585-1.414-.339-2.14l3.812-11.24c0-.001 0-.001 0-.001 1.275-3.759.323-7.838-2.485-10.646-2.808-2.809-6.89-3.759-10.647-2.484l-11.24 3.811c-.73.249-1.526.12-2.14-.339l-9.512-7.099c-3.181-2.372-7.356-2.727-10.893-.927-3.539 1.802-5.705 5.388-5.655 9.358l.152 11.87c.011.765-.357 1.486-.983 1.929l-9.69 6.852c-3.242 2.293-4.87 6.153-4.249 10.074.622 3.922 3.363 7.09 7.153 8.268l11.333 3.523c.733.229 1.306.801 1.534 1.533l3.523 11.334c1.178 3.792 4.347 6.533 8.268 7.154.553.087 1.103.13 1.649.13 3.329 0 6.455-1.594 8.424-4.379l6.854-9.691c.441-.626 1.173-.96 1.931-.983l11.867.152c.045 0 .09.001.135.001 3.915 0 7.442-2.158 9.224-5.656 1.802-3.537 1.446-7.711-.928-10.893zm.875 16.763c-.196.384-.788 1.272-2.069 1.272-.012 0-.024-.001-.036-.001l-11.867-.152c-.044 0-.088-.001-.132-.001-3.359 0-6.513 1.63-8.454 4.376l-6.853 9.69c-.753 1.065-1.832 1.023-2.266.955-.43-.068-1.473-.361-1.861-1.609l-3.523-11.335c-1.012-3.254-3.559-5.8-6.814-6.812l-11.334-3.523c-1.248-.388-1.541-1.43-1.609-1.86-.069-.43-.112-1.512.955-2.266l9.689-6.852c2.785-1.969 4.42-5.178 4.376-8.586l-.152-11.868c-.017-1.307.884-1.909 1.272-2.105.209-.107.603-.266 1.084-.266.409 0 .884.115 1.366.474l9.512 7.099c2.732 2.038 6.289 2.603 9.518 1.507l11.24-3.811c1.241-.417 2.089.251 2.396.559.308.308.978 1.157.559 2.395v-.001l-3.812 11.241c-1.094 3.229-.531 6.787 1.507 9.518l7.099 9.512c.782 1.047.407 2.062.209 2.45z"/><path d="m500.687 123.232c1.442-1.443 1.442-3.781 0-5.223-1.442-1.443-3.781-1.443-5.223 0-1.442 1.442-1.442 3.78 0 5.223 1.442 1.442 3.78 1.442 5.223 0z"/><path d="m480.09 133.962 4.642 4.642c.419-1.28.135-2.741-.883-3.759-1.017-1.018-2.478-1.302-3.759-.883z"/><path d="m500.687 89.557c1.442-1.443 1.442-3.781 0-5.224-1.442-1.442-3.781-1.442-5.223 0s-1.442 3.781 0 5.224c1.442 1.442 3.78 1.442 5.223 0z"/><path d="m483.85 106.394c1.442-1.442 1.442-3.781 0-5.223s-3.781-1.442-5.223 0c-1.443 1.442-1.443 3.781 0 5.223 1.442 1.443 3.78 1.443 5.223 0z"/><path d="m484.483 118.009c-1.442-1.443-3.781-1.443-5.223 0-1.443 1.442-1.442 3.781 0 5.223s3.781 1.442 5.223 0c1.443-1.443 1.443-3.782 0-5.223z"/><path d="m500.687 55.883c1.442-1.442 1.442-3.781 0-5.223s-3.781-1.442-5.223 0-1.442 3.781 0 5.223 3.78 1.442 5.223 0z"/><path d="m484.483 89.557c1.443-1.443 1.442-3.781 0-5.223-.71-.711-1.638-1.067-2.569-1.078l-1.604 7.022c1.368.641 3.043.409 4.173-.721z"/><path d="m484.053 139.757c.315-.316.549-.679.727-1.061l-4.889-4.889c-.382.177-.745.411-1.061.726-1.442 1.443-1.442 3.781 0 5.224 1.442 1.442 3.781 1.442 5.223 0z"/><path d="m479.464 151.37c-1.442 1.443-1.442 3.781 0 5.223 1.442 1.443 3.781 1.443 5.223 0 1.443-1.442 1.442-3.78 0-5.223s-3.781-1.443-5.223 0z"/><path d="m467.216 156.593c1.443-1.442 1.443-3.78 0-5.223-1.442-1.442-3.781-1.442-5.223 0-1.442 1.443-1.442 3.781 0 5.223 1.442 1.443 3.78 1.443 5.223 0z"/><path d="m462.627 168.207c-1.442 1.442-1.442 3.781 0 5.224 1.442 1.442 3.781 1.442 5.223 0 1.442-1.443 1.442-3.781 0-5.224-1.442-1.442-3.781-1.442-5.223 0z"/><path d="m450.379 173.431c1.442-1.443 1.442-3.781 0-5.224-1.442-1.442-3.781-1.442-5.223 0s-1.442 3.781 0 5.224c1.442 1.442 3.781 1.442 5.223 0z"/><path d="m445.79 185.044c-1.442 1.442-1.442 3.781 0 5.224 1.442 1.442 3.781 1.442 5.223 0s1.442-3.781 0-5.224c-1.443-1.442-3.781-1.442-5.223 0z"/><path d="m433.542 190.268c1.442-1.442 1.442-3.781 0-5.224-1.442-1.442-3.781-1.442-5.223 0s-1.442 3.781 0 5.224c1.442 1.442 3.78 1.442 5.223 0z"/><path d="m428.952 201.882c-1.443 1.443-1.443 3.781 0 5.223 1.442 1.442 3.781 1.442 5.223 0 1.443-1.442 1.442-3.78 0-5.223s-3.78-1.443-5.223 0z"/><path d="m416.704 207.105c1.443-1.442 1.443-3.78 0-5.223-1.442-1.442-3.781-1.442-5.223 0-1.442 1.443-1.442 3.781 0 5.223 1.443 1.442 3.781 1.442 5.223 0z"/><path d="m412.115 218.718c-1.442 1.442-1.442 3.781 0 5.224 1.443 1.442 3.781 1.443 5.223 0 1.442-1.442 1.442-3.781 0-5.223s-3.78-1.442-5.223-.001z"/><path d="m399.867 223.942c1.442-1.442 1.442-3.781 0-5.223s-3.781-1.442-5.223 0-1.442 3.781 0 5.223 3.781 1.442 5.223 0z"/><path d="m395.278 235.556c-1.442 1.442-1.442 3.781 0 5.224 1.442 1.442 3.781 1.442 5.224 0 1.442-1.442 1.442-3.781 0-5.224-1.443-1.442-3.782-1.442-5.224 0z"/><path d="m383.03 240.78c1.442-1.442 1.442-3.781 0-5.224-1.442-1.442-3.781-1.442-5.223 0s-1.442 3.781 0 5.224c1.442 1.441 3.781 1.441 5.223 0z"/><path d="m378.441 252.393c-1.443 1.442-1.442 3.781 0 5.223s3.781 1.442 5.223 0c1.443-1.442 1.442-3.781 0-5.223s-3.781-1.442-5.223 0z"/><path d="m366.193 257.616c1.442-1.442 1.442-3.781 0-5.223-1.442-1.443-3.781-1.443-5.223 0-1.442 1.442-1.442 3.781 0 5.223 1.442 1.443 3.781 1.443 5.223 0z"/><path d="m361.604 269.23c-1.442 1.442-1.442 3.781 0 5.224 1.442 1.442 3.781 1.442 5.223 0 1.442-1.443 1.442-3.781 0-5.223-1.442-1.443-3.781-1.443-5.223-.001z"/><path d="m349.356 274.454c1.442-1.443 1.442-3.781 0-5.223-1.443-1.443-3.781-1.443-5.223 0-1.442 1.442-1.442 3.78 0 5.223 1.442 1.442 3.78 1.442 5.223 0z"/><circle cx="347.378" cy="288.679" r="3.693"/><path d="m332.519 291.29c1.442-1.442 1.442-3.78 0-5.223-1.442-1.442-3.781-1.442-5.223 0-1.443 1.443-1.443 3.781 0 5.223 1.442 1.443 3.78 1.443 5.223 0z"/><path d="m327.929 302.905c-1.442 1.442-1.442 3.781 0 5.224 1.442 1.442 3.781 1.442 5.224 0 1.442-1.442 1.442-3.781 0-5.224-1.443-1.443-3.781-1.443-5.224 0z"/><path d="m315.682 308.128c1.442-1.442 1.442-3.781 0-5.224-1.442-1.442-3.781-1.442-5.224 0-1.442 1.442-1.442 3.781 0 5.224 1.443 1.443 3.781 1.443 5.224 0z"/><path d="m311.092 319.741c-1.442 1.443-1.442 3.781 0 5.224 1.443 1.442 3.781 1.442 5.224 0 1.442-1.442 1.442-3.781 0-5.223-1.443-1.442-3.781-1.442-5.224-.001z"/><path d="m298.844 324.965c1.442-1.442 1.442-3.781 0-5.224-1.443-1.442-3.781-1.442-5.224 0-1.442 1.443-1.442 3.781 0 5.224 1.443 1.443 3.782 1.443 5.224 0z"/><path d="m294.255 336.579c-1.442 1.443-1.442 3.781 0 5.223s3.781 1.442 5.223 0 1.442-3.78 0-5.223c-1.442-1.442-3.781-1.442-5.223 0z"/><path d="m282.007 341.802c1.443-1.442 1.443-3.78 0-5.223-1.442-1.442-3.781-1.442-5.223 0-1.442 1.443-1.442 3.781 0 5.223s3.781 1.442 5.223 0z"/><path d="m277.418 353.416c-1.443 1.442-1.442 3.781 0 5.223s3.781 1.443 5.223 0c1.442-1.442 1.442-3.781 0-5.223s-3.781-1.442-5.223 0z"/><path d="m462.627 134.533c-1.442 1.443-1.442 3.781 0 5.224 1.442 1.442 3.781 1.442 5.223 0 1.442-1.443 1.442-3.781 0-5.224-1.442-1.442-3.781-1.442-5.223 0z"/><path d="m445.79 151.37c-1.442 1.443-1.442 3.781 0 5.223 1.442 1.443 3.781 1.443 5.223 0 1.442-1.442 1.442-3.78 0-5.223-1.443-1.443-3.781-1.443-5.223 0z"/><path d="m428.952 168.207c-1.443 1.442-1.443 3.781 0 5.224 1.442 1.442 3.781 1.442 5.223 0 1.443-1.443 1.442-3.781 0-5.224-1.442-1.442-3.78-1.442-5.223 0z"/><path d="m395.278 201.882c-1.442 1.443-1.442 3.781 0 5.223s3.781 1.442 5.224 0c1.442-1.442 1.442-3.78 0-5.223-1.443-1.443-3.782-1.443-5.224 0z"/><path d="m378.441 218.718c-1.443 1.442-1.442 3.781 0 5.224 1.442 1.442 3.781 1.443 5.223 0 1.443-1.442 1.442-3.781 0-5.223s-3.781-1.442-5.223-.001z"/><path d="m361.604 235.556c-1.442 1.442-1.442 3.781 0 5.224 1.442 1.442 3.781 1.442 5.223 0s1.442-3.781 0-5.224c-1.442-1.442-3.781-1.442-5.223 0z"/><path d="m344.766 252.393c-1.442 1.442-1.442 3.781 0 5.223s3.781 1.442 5.223 0 1.442-3.781 0-5.223-3.78-1.442-5.223 0z"/><path d="m327.929 269.23c-1.442 1.442-1.442 3.781 0 5.224 1.442 1.442 3.781 1.442 5.224 0 1.442-1.443 1.442-3.781 0-5.223-1.443-1.443-3.781-1.443-5.224-.001z"/><path d="m311.092 286.067c-1.442 1.443-1.442 3.781 0 5.223 1.443 1.443 3.781 1.443 5.224 0 1.442-1.442 1.442-3.78 0-5.223-1.443-1.442-3.781-1.442-5.224 0z"/><path d="m294.255 302.905c-1.442 1.442-1.442 3.781 0 5.224 1.442 1.442 3.781 1.442 5.223 0s1.442-3.781 0-5.224-3.781-1.443-5.223 0z"/><path d="m277.418 319.741c-1.443 1.443-1.442 3.781 0 5.224 1.442 1.442 3.781 1.442 5.223 0s1.442-3.781 0-5.223-3.781-1.442-5.223-.001z"/><path d="m260.581 336.579c-1.442 1.443-1.442 3.781 0 5.223s3.781 1.442 5.223 0 1.442-3.78 0-5.223c-1.443-1.442-3.781-1.442-5.223 0z"/><path d="m328.276 240.377-58.391-58.392c-1.568-1.567-4.109-1.567-5.674 0-1.568 1.566-1.568 4.108 0 5.674l58.391 58.392c.784.784 1.81 1.176 2.837 1.176s2.055-.392 2.837-1.176c1.567-1.566 1.567-4.107 0-5.674z"/><path d="m244.385 207.485c-1.565-1.568-4.109-1.568-5.674 0-1.567 1.566-1.567 4.108 0 5.674l58.391 58.391c.783.784 1.811 1.175 2.837 1.175s2.054-.392 2.837-1.175c1.567-1.567 1.567-4.108 0-5.674z"/><path d="m411.176 99.085c-24.942-24.942-65.527-24.944-90.472 0-12.084 12.083-18.738 28.148-18.738 45.236s6.654 33.152 18.738 45.235c12.083 12.084 28.147 18.738 45.236 18.738 17.088 0 33.152-6.654 45.235-18.738.088-.088.168-.181.255-.269.174.352.391.687.684.98 1.443 1.442 3.781 1.442 5.223 0s1.442-3.781 0-5.224c-.402-.401-.875-.679-1.377-.857 20.029-25.092 18.442-61.875-4.784-85.101zm-45.236 101.21c-14.952 0-29.008-5.822-39.58-16.395-10.572-10.572-16.395-24.628-16.395-39.579s5.822-29.008 16.395-39.58c10.914-10.913 25.244-16.368 39.58-16.368 14.331 0 28.668 5.458 39.579 16.368 21.823 21.825 21.823 57.335 0 79.159-10.572 10.573-24.628 16.395-39.579 16.395z"/><circle cx="365.94" cy="144.321" r="32.659"/></g><g><path d="m509.669 22.338c-.002-13.875-7.76-21.659-21.905-21.917l-123.908-.378c-.028 0-.055 0-.083 0-6.332 0-12.265 2.176-16.71 6.132-.396.352-.784.718-1.161 1.096l-24.152 24.149-17.088-17.088c-4.734-4.736-11.666-6.503-18.088-4.616l-227.483 66.822c-6.256 1.839-10.955 6.708-12.567 13.027-1.613 6.319.178 12.846 4.79 17.457l97.41 97.409-.287.287c-4.801 4.8-7.87 10.813-8.643 16.933-.821 6.499 1.004 12.355 5.139 16.488l20.465 20.465-33.276 21.282c-3.883 2.484-6.308 6.483-6.827 11.26-.629 5.789 1.707 11.958 6.25 16.5l71.07 71.07v.001c4.067 4.066 9.391 6.35 14.608 6.35.751 0 1.502-.047 2.244-.145 4.862-.63 8.851-3.228 11.23-7.313l19.768-33.938 21.657 21.658c3.558 3.559 8.371 5.289 13.514 5.289 6.775 0 14.119-3.005 19.908-8.793l.287-.287 97.409 97.408c3.495 3.496 8.091 5.371 12.863 5.371 1.523 0 3.063-.191 4.592-.581 6.32-1.613 11.19-6.311 13.029-12.569l66.822-227.48c1.887-6.423.119-13.355-4.615-18.09h-.001l-17.093-17.092 24.245-24.249c.014-.015.098-.099.112-.113 4.554-4.607 7.145-11.147 7.111-17.943zm-145.838-14.27 123.847.378c7.861.144 12.175 3.011 13.51 9.171-.143-.224-.306-.438-.501-.633-.923-.923-2.211-1.248-3.398-.99-.01.034-.016.066-.026.101l-1.46 6.39c1.449 1.141 3.547 1.06 4.884-.277.445-.445.736-.979.906-1.542.033.545.051 1.109.051 1.694l.061 11.933c-.116-.163-.237-.324-.384-.47-1.443-1.442-3.781-1.442-5.224 0-1.442 1.443-1.442 3.781 0 5.224 1.442 1.442 3.781 1.443 5.224 0 .155-.154.284-.324.406-.497l.152 29.688c-.155-.262-.332-.515-.558-.74-1.443-1.442-3.781-1.442-5.224 0-1.442 1.442-1.442 3.781 0 5.223 1.442 1.443 3.781 1.443 5.224 0 .235-.235.418-.5.577-.776l.155 30.299c-.178-.386-.414-.753-.732-1.071-1.443-1.442-3.781-1.443-5.224 0-1.442 1.442-1.442 3.781 0 5.223s3.781 1.442 5.224 0c.327-.327.569-.703.747-1.101l.159 31.098c-.17-.564-.461-1.1-.907-1.546-1.443-1.442-3.781-1.442-5.224 0-1.442 1.443-1.442 3.781 0 5.224 1.442 1.442 3.781 1.442 5.224 0 .455-.455.75-1.004.918-1.581l.04 7.754c.005 1.003-.082 1.993-.238 2.963l-141.757-140.807c1.13-.212 2.296-.332 3.49-.332zm-306.844 93.28c-2.587-2.588-3.593-6.251-2.687-9.798s3.542-6.28 7.053-7.312l35.808-10.518 50.752 50.753 32.365-32.365-33.085-33.085 141.643-41.607c.954-.28 1.928-.417 2.894-.417 2.683 0 5.304 1.054 7.257 3.007l17.088 17.087-161.678 161.664zm166.775 272.223c-1.409 2.417-3.675 3.181-5.329 3.395-3.451.445-7.241-1.021-10.146-3.925v.001l-71.07-71.07c-2.84-2.84-4.315-6.564-3.946-9.961.177-1.635.872-3.892 3.173-5.364l34.762-22.233 73.389 73.389zm266.492-162.298c2.658 2.658 3.65 6.548 2.591 10.154l-41.607 141.641-33.387-33.387-32.365 32.365 51.055 51.055-10.518 35.806c-1.032 3.513-3.765 6.149-7.312 7.055-3.544.904-7.208-.1-9.797-2.688l-97.409-97.409 161.657-161.683zm7.248-52.787-12.371 12.373c.01-.958-.347-1.92-1.078-2.652-1.442-1.442-3.781-1.442-5.223 0s-1.442 3.781 0 5.224c.732.732 1.694 1.088 2.653 1.078l-13.189 13.191c.011-.96-.345-1.923-1.078-2.655-1.442-1.442-3.781-1.442-5.223 0s-1.442 3.781 0 5.224c.732.732 1.696 1.089 2.656 1.078l-13.192 13.194c.012-.96-.344-1.925-1.077-2.658-1.442-1.442-3.781-1.442-5.223 0-1.442 1.443-1.442 3.781 0 5.223.733.733 1.698 1.09 2.659 1.078l-13.197 13.196c.013-.962-.343-1.928-1.077-2.661-1.442-1.442-3.781-1.442-5.223 0s-1.442 3.781 0 5.223c.734.734 1.7 1.09 2.662 1.077l-13.199 13.201c.014-.962-.342-1.929-1.077-2.664-1.442-1.442-3.781-1.442-5.223 0s-1.442 3.781 0 5.224c.735.734 1.702 1.09 2.665 1.076l-13.202 13.204c.014-.964-.341-1.932-1.077-2.667-1.442-1.443-3.781-1.443-5.223 0-1.442 1.442-1.442 3.781 0 5.223.736.735 1.704 1.091 2.668 1.077l-13.205 13.207c.015-.965-.34-1.934-1.076-2.67-1.442-1.443-3.781-1.443-5.223 0-1.442 1.442-1.442 3.78 0 5.223.737.736 1.706 1.091 2.671 1.076l-13.209 13.211c.016-.965-.339-1.936-1.076-2.673-1.442-1.442-3.781-1.442-5.223 0-1.442 1.443-1.442 3.781 0 5.223.737.737 1.708 1.093 2.674 1.076l-13.213 13.215c.017-.967-.338-1.939-1.075-2.677-1.443-1.442-3.781-1.442-5.223 0s-1.442 3.781 0 5.224c.738.738 1.71 1.092 2.677 1.075l-13.216 13.218c.018-.968-.337-1.941-1.075-2.68-1.442-1.442-3.781-1.442-5.223 0-1.443 1.443-1.443 3.781 0 5.224.739.739 1.712 1.093 2.68 1.075l-13.219 13.221c.019-.969-.335-1.943-1.075-2.683-1.442-1.442-3.781-1.442-5.224 0-1.442 1.443-1.442 3.781 0 5.223.74.74 1.714 1.094 2.683 1.075l-13.222 13.225c.02-.97-.335-1.946-1.074-2.686-1.443-1.442-3.781-1.442-5.224 0-1.442 1.442-1.442 3.781 0 5.223.526.526 1.172.855 1.849.998-6.338 3.917-13.554 4.136-17.674.02l-127.193-127.191c-2.341-2.342-3.354-5.824-2.851-9.808.552-4.362 2.808-8.717 6.355-12.265l197.466-197.447c.268-.267.542-.526.822-.775.058-.052.123-.095.182-.146l142.104 141.15c-.267 1.193.056 2.49.984 3.419.708.708 1.631 1.064 2.559 1.077-.237.277-.469.558-.724.816z"/></g></g></g></svg>